<svg xmlns="http://www.w3.org/2000/svg" width="512" height="512" viewBox="0 0 512 512">
  <defs>
    <linearGradient id="g" x1="0" y1="0" x2="1" y2="1">
      <stop offset="0%" stop-color="#0f2e88"/>
      <stop offset="100%" stop-color="#6b2d90"/>
    </linearGradient>
    <linearGradient id="s" x1="0" y1="0" x2="1" y2="1">
      <stop offset="0%" stop-color="#58e"/>
      <stop offset="100%" stop-color="#f5a"/>
    </linearGradient>
  </defs>
  <rect width="512" height="512" fill="url(#g)"/>
  <g stroke="url(#s)" stroke-width="16" fill="none" stroke-linecap="round" stroke-linejoin="round">
    <rect x="176" y="176" width="160" height="160" rx="24"/>
    <rect x="208" y="208" width="96" height="96" rx="18"/>
    <circle cx="128" cy="256" r="10" fill="#fff"/>
    <path d="M128 256h48"/>
    <circle cx="384" cy="256" r="10" fill="#fff"/>
    <path d="M336 256h48"/>
    <circle cx="256" cy="128" r="10" fill="#fff"/>
    <path d="M256 128v48"/>
    <circle cx="256" cy="384" r="10" fill="#fff"/>
    <path d="M256 336v48"/>
    <circle cx="168" cy="168" r="8" fill="#fff"/>
    <circle cx="344" cy="168" r="8" fill="#fff"/>
    <circle cx="168" cy="344" r="8" fill="#fff"/>
    <circle cx="344" cy="344" r="8" fill="#fff"/>
  </g>
  <text x="50%" y="465" text-anchor="middle" font-family="Inter, system-ui, -apple-system, Segoe UI, Roboto, Helvetica, Arial" font-size="44" fill="#9ed0ff">Pioneer</text>
</svg>

